<svg xmlns="http://www.w3.org/2000/svg" viewBox="0 0 76.75 76.75"><defs><style>.cls-1{fill:none;stroke:#272c41;stroke-miterlimit:10;stroke-width:3px;}.cls-2{fill:#272c41;}</style></defs><title>camera</title><g id="Layer_2" data-name="Layer 2"><g id="camera"><circle class="cls-1" cx="38.38" cy="38.38" r="36.88"/><path class="cls-2" d="M60.78,24.25H16A1.4,1.4,0,0,0,16,27h1.49v4.18a1.39,1.39,0,0,0,1.39,1.39h1.4v9.77a18.13,18.13,0,0,0,36.25,0V32.61h1.4a1.39,1.39,0,0,0,1.39-1.39V27h1.49a1.4,1.4,0,0,0,0-2.79ZM53.71,42.38a15.31,15.31,0,0,1-1.67,7H47.19a9.69,9.69,0,0,0,0-8.37h6.52Zm-8.36,2.78a7,7,0,1,1-7-7A7,7,0,0,1,45.35,45.16ZM29.56,49.35H24.71a15.31,15.31,0,0,1-1.67-7V41h6.52a9.74,9.74,0,0,0,0,8.39Zm8.82,8.36a15.33,15.33,0,0,1-11.83-5.57h5a9.74,9.74,0,0,0,13.65,0h5A15.34,15.34,0,0,1,38.38,57.71ZM53.71,38.19H45.2a9.74,9.74,0,0,0-13.65,0H23V32.61H53.71Zm2.79-8.36H20.25V27H56.5Z"/><path class="cls-2" d="M34.19,45.16A4.19,4.19,0,1,0,38.38,41,4.2,4.2,0,0,0,34.19,45.16Zm5.58,0a1.4,1.4,0,1,1-1.39-1.39A1.4,1.4,0,0,1,39.77,45.16Z"/></g></g></svg>