<svg xmlns="http://www.w3.org/2000/svg" viewBox="0 0 76.75 76.75"><defs><style>.cls-1{fill:none;stroke-width:3px;}.cls-1,.cls-2{stroke:#272c41;stroke-miterlimit:10;}.cls-2{fill:#272c41;stroke-width:1.5px;}</style></defs><title>cloud</title><g id="Layer_2" data-name="Layer 2"><g id="cloud"><circle class="cls-1" cx="38.38" cy="38.38" r="36.88"/><path class="cls-2" d="M25,53.42H37.24v-1.5H25a8.94,8.94,0,0,1-.59-17.86l.71-.05s0-.7,0-.73a3.75,3.75,0,0,1,5.61-3.23l.77.44.31-.83A10.45,10.45,0,0,1,52,33.29V34l.68.07a8.94,8.94,0,0,1-.93,17.84H37.24v1.5H51.78a10.44,10.44,0,0,0,1.74-20.74,12,12,0,0,0-22.85-4.29,5.24,5.24,0,0,0-7,4.24A10.44,10.44,0,0,0,25,53.42Z"/></g></g></svg>